<svg xmlns="http://www.w3.org/2000/svg" width="198" height="693" viewBox="0 0 198 693">
  <g id="Group_4" data-name="Group 4" transform="translate(-978 -160)">
    <g id="Group_3" data-name="Group 3" transform="translate(1199 1202) rotate(180)">
      <g id="Rectangle_18" data-name="Rectangle 18" transform="translate(23 349)" fill="none" stroke="#fff" stroke-width="2">
        <rect width="99" height="99" rx="20" stroke="none"/>
        <rect x="1" y="1" width="97" height="97" rx="19" fill="none"/>
      </g>
      <g id="Rectangle_20" data-name="Rectangle 20" transform="translate(23 547)" fill="none" stroke="#fff" stroke-width="2">
        <rect width="99" height="99" rx="20" stroke="none"/>
        <rect x="1" y="1" width="97" height="97" rx="19" fill="none"/>
      </g>
      <g id="Rectangle_22" data-name="Rectangle 22" transform="translate(23 745)" fill="none" stroke="#fff" stroke-width="2">
        <rect width="99" height="99" rx="20" stroke="none"/>
        <rect x="1" y="1" width="97" height="97" rx="19" fill="none"/>
      </g>
      <g id="Rectangle_24" data-name="Rectangle 24" transform="translate(23 943)" fill="none" stroke="#fff" stroke-width="2">
        <rect width="99" height="99" rx="20" stroke="none"/>
        <rect x="1" y="1" width="97" height="97" rx="19" fill="none"/>
      </g>
      <g id="Rectangle_19" data-name="Rectangle 19" transform="translate(122 448)" fill="none" stroke="#fff" stroke-width="2">
        <rect width="99" height="99" rx="20" stroke="none"/>
        <rect x="1" y="1" width="97" height="97" rx="19" fill="none"/>
      </g>
      <g id="Rectangle_21" data-name="Rectangle 21" transform="translate(122 646)" fill="none" stroke="#fff" stroke-width="2">
        <rect width="99" height="99" rx="20" stroke="none"/>
        <rect x="1" y="1" width="97" height="97" rx="19" fill="none"/>
      </g>
      <g id="Rectangle_23" data-name="Rectangle 23" transform="translate(122 844)" fill="none" stroke="#fff" stroke-width="2">
        <rect width="99" height="99" rx="20" stroke="none"/>
        <rect x="1" y="1" width="97" height="97" rx="19" fill="none"/>
      </g>
    </g>
    <circle id="Ellipse_3" data-name="Ellipse 3" cx="42.5" cy="42.5" r="42.5" transform="translate(981 563)" fill="#2df5f5" opacity="0.3"/>
    <circle id="Ellipse_5" data-name="Ellipse 5" cx="42.5" cy="42.5" r="42.5" transform="translate(981 164)" fill="#ff595e" opacity="0.34"/>
  </g>
</svg>
